<svg xmlns="http://www.w3.org/2000/svg" width="375" viewBox="0 0 375 375" height="375" version="1.0"><path fill="#004AAD" d="M 15.675781 134.902344 C 15.632812 135.152344 15.574219 135.402344 15.484375 135.648438 C 15.574219 135.402344 15.632812 135.152344 15.675781 134.902344 Z M 15.71875 134.597656 C 15.71875 135.050781 15.777344 136.601562 16.320312 138.691406 C 17.445312 142.921875 20.347656 146.742188 24.316406 149.15625 L 179.613281 243.691406 C 179.363281 242.15625 179.246094 240.589844 179.246094 238.980469 C 179.246094 223.757812 185.835938 213.253906 201.285156 203.828125 L 349.128906 113.800781 C 351.078125 112.617188 351.28125 110.640625 351.28125 109.851562 C 351.28125 109.058594 351.078125 107.097656 349.128906 105.898438 L 192.105469 10.265625 L 33.425781 106.910156 C 20.535156 114.753906 15.75 122.128906 15.75 134.097656 C 15.75 134.257812 15.734375 134.433594 15.71875 134.597656 Z M 199.574219 263.5625 C 196.320312 263.5625 193.171875 262.6875 190.273438 260.914062 C 189.6875 260.550781 189.117188 260.167969 188.574219 259.746094 L 19.953125 157.101562 C 13.945312 153.457031 9.683594 147.78125 7.925781 141.152344 C 7.0625 137.84375 6.886719 135.589844 7.035156 134.054688 C 7.050781 118.851562 13.640625 108.359375 29.074219 98.949219 L 189.921875 0.988281 C 191.269531 0.167969 192.925781 0.167969 194.273438 0.988281 L 353.480469 97.953125 C 357.566406 100.441406 359.996094 104.890625 359.996094 109.851562 C 359.996094 114.8125 357.566406 119.273438 353.480469 121.746094 L 205.652344 211.789062 C 192.75 219.648438 187.960938 227.007812 187.960938 238.980469 C 187.960938 244.40625 190.082031 249.414062 193.480469 252.148438 C 193.554688 252.207031 193.640625 252.265625 193.714844 252.339844 C 194.007812 252.558594 194.316406 252.765625 194.625 252.953125 C 198.078125 255.0625 202.179688 254.796875 206.472656 252.179688 L 355.996094 161.113281 L 343.855469 152.769531 C 341.851562 151.394531 341.28125 148.542969 342.582031 146.421875 C 343.902344 144.296875 346.59375 143.699219 348.617188 145.089844 L 366.6875 157.511719 C 367.960938 158.375 368.710938 159.882812 368.664062 161.476562 C 368.621094 163.074219 367.800781 164.535156 366.484375 165.328125 L 210.835938 260.140625 C 207.085938 262.421875 203.265625 263.5625 199.574219 263.5625"/><path fill="#004AAD" d="M 272.34375 321.410156 C 270.835938 321.410156 269.371094 320.589844 268.566406 319.113281 C 267.367188 316.917969 268.082031 314.109375 270.164062 312.835938 L 355.996094 260.5625 L 343.855469 252.222656 C 341.851562 250.832031 341.28125 247.992188 342.582031 245.855469 C 343.902344 243.734375 346.59375 243.136719 348.617188 244.523438 L 366.6875 256.949219 C 367.960938 257.828125 368.710938 259.335938 368.664062 260.929688 C 368.621094 262.523438 367.800781 263.972656 366.484375 264.777344 L 274.511719 320.796875 C 273.824219 321.222656 273.078125 321.410156 272.34375 321.410156"/><path fill="#004AAD" d="M 15.675781 234.355469 C 15.632812 234.601562 15.574219 234.851562 15.484375 235.085938 C 15.574219 234.851562 15.632812 234.601562 15.675781 234.355469 Z M 190.992188 359.957031 C 190.246094 359.957031 189.496094 359.75 188.808594 359.34375 L 19.953125 256.554688 C 13.945312 252.894531 9.683594 247.230469 7.925781 240.589844 C 7.0625 237.28125 6.886719 235.042969 7.035156 233.503906 C 7.050781 218.332031 13.609375 207.839844 28.972656 198.457031 L 36.296875 193.4375 C 38.316406 192.0625 41.011719 192.664062 42.328125 194.785156 C 43.632812 196.921875 43.0625 199.761719 41.039062 201.152344 L 33.628906 206.226562 C 33.554688 206.273438 33.496094 206.300781 33.425781 206.34375 C 20.535156 214.203125 15.75 221.578125 15.75 233.535156 C 15.75 233.710938 15.734375 233.871094 15.71875 234.046875 C 15.71875 234.484375 15.777344 236.050781 16.320312 238.128906 C 17.445312 242.375 20.347656 246.191406 24.316406 248.59375 L 193.171875 351.382812 C 195.253906 352.652344 195.972656 355.464844 194.753906 357.660156 C 193.964844 359.136719 192.484375 359.957031 190.992188 359.957031"/><path fill="#004AAD" d="M 242.601562 375 C 241.867188 375 241.121094 374.796875 240.460938 374.398438 C 239.101562 373.59375 238.25 372.058594 238.25 370.40625 L 238.25 343.082031 L 210.804688 359.589844 C 203.792969 363.863281 196.484375 364.140625 190.273438 360.351562 C 183.476562 356.210938 179.246094 347.808594 179.246094 338.429688 C 179.246094 323.195312 185.835938 312.6875 201.285156 303.28125 L 349.128906 213.238281 C 351.078125 212.050781 351.28125 210.089844 351.28125 209.300781 C 351.28125 208.496094 351.078125 206.535156 349.128906 205.351562 C 347.050781 204.078125 346.332031 201.265625 347.53125 199.074219 C 348.734375 196.878906 351.398438 196.132812 353.480469 197.390625 C 357.566406 199.878906 359.996094 204.324219 359.996094 209.300781 C 359.996094 214.261719 357.566406 218.710938 353.480469 221.199219 L 205.652344 311.242188 C 192.75 319.085938 187.960938 326.460938 187.960938 338.429688 C 187.960938 344.445312 190.566406 349.933594 194.625 352.40625 C 198.078125 354.511719 202.179688 354.25 206.472656 351.628906 L 240.449219 331.199219 C 241.796875 330.382812 243.449219 330.394531 244.796875 331.214844 C 246.128906 332.035156 246.964844 333.558594 246.964844 335.179688 L 246.964844 362.3125 L 267.980469 349.023438 L 267.980469 316.816406 C 267.980469 310.449219 264.714844 304.523438 259.472656 301.363281 C 257.378906 300.105469 256.660156 297.292969 257.847656 295.097656 C 259.03125 292.890625 261.699219 292.128906 263.777344 293.386719 C 271.746094 298.171875 276.695312 307.15625 276.695312 316.816406 L 276.695312 351.628906 C 276.695312 353.253906 275.890625 354.746094 274.570312 355.566406 L 244.839844 374.339844 C 244.152344 374.78125 243.378906 375 242.601562 375"/><path fill="#004AAD" d="M 164.910156 185.742188 C 164.191406 185.742188 163.472656 185.550781 162.800781 185.15625 L 29.148438 106.9375 C 27.039062 105.707031 26.277344 102.914062 27.449219 100.703125 C 28.605469 98.480469 31.257812 97.675781 33.367188 98.902344 L 167.015625 177.121094 C 169.125 178.351562 169.886719 181.144531 168.714844 183.371094 C 167.925781 184.878906 166.429688 185.742188 164.910156 185.742188"/><path fill="#38B6FF" d="M 108.933594 76.820312 L 275.257812 76.820312 L 192.105469 26.175781 Z M 108.933594 76.820312"/></svg>